<svg width="62" height="18" viewBox="0 0 62 18" fill="none" xmlns="http://www.w3.org/2000/svg">
<path d="M23.68 5.14C23.68 4.46 23.28 4.02 22.48 3.86C21.76 4.02 21.36 4.34 21.28 4.78C20.6 8.38 20.04 12.14 19.56 16.1C16.2 17.26 12.32 17.98 7.92 18.26C8.28 14.78 8.76 11.78 9.32 9.26C9.76 7.42 10.08 6.18 10.32 5.5C11 3.54 11.36 2.38 11.36 2.02C11.36 1.22 10.92 0.779999 10.08 0.779999C9.48 0.779999 8.92 1.58 8.36 3.18C6.92 7.22 5.88 12.26 5.32 18.26C3.72 18.18 2.52 18.1 1.8 18.02C1.12 18.02 0.8 18.46 0.8 19.34C0.8 20.14 1.4 20.58 2.68 20.62C3.64 20.7 4.44 20.74 5.12 20.74C4.96 22.98 4.84 25.14 4.76 27.3C4.72 27.9 4.64 29.18 4.56 31.18C4.48 32.78 4.44 33.86 4.44 34.46C4.48 35.22 4.84 35.66 5.56 35.82C6.36 35.58 6.84 35.1 6.92 34.38C7.24 28.34 7.52 23.78 7.68 20.7C11.36 20.5 15.2 19.86 19.28 18.78C19.04 20.94 18.88 22.06 18.88 22.18C18.52 25.94 18.36 29.34 18.36 32.46C18.36 33.7 18.4 34.54 18.56 34.98C18.76 35.54 19.2 35.86 19.88 35.94C20.52 35.78 20.96 35.26 21.16 34.34C21.16 34.18 21.12 33.7 21.08 32.86C21.04 31.98 21.04 31.26 21.04 30.66C21.04 25.46 21.6 19.06 22.72 11.38C23.2 8.3 23.52 6.22 23.68 5.14ZM43.7831 19.7C43.7831 18.98 43.4231 18.58 42.7431 18.58C42.4231 18.58 42.1431 18.82 41.8631 19.3C40.1031 22.3 38.3831 24.82 36.6231 26.9C34.2231 29.78 32.2231 31.18 30.6631 31.18C30.2631 31.18 30.0631 30.9 30.0631 30.34C30.0631 30.1 30.1431 29.42 30.3431 28.3C31.1031 23.98 31.5031 21.38 31.5031 20.5C31.5031 19.06 31.1431 18.34 30.5031 18.34C30.1831 18.34 29.9031 18.5 29.6631 18.78C29.4231 19.1 29.3031 19.38 29.3031 19.7C29.3031 19.78 29.3031 19.94 29.3431 20.1C29.3431 20.34 29.3431 20.46 29.3431 20.54C29.3431 21.66 29.0631 23.58 28.5431 26.3C27.9831 28.86 27.7431 30.54 27.7431 31.3C27.7431 32.1 28.0231 32.74 28.5831 33.22C29.1031 33.7 29.8231 33.94 30.7031 33.94C32.7031 33.94 35.9031 31.34 40.3031 26.14C39.9031 28.18 39.6631 30.34 39.5831 32.62C39.3831 32.9 39.3031 33.18 39.3031 33.46C39.3031 33.78 39.4631 34.02 39.7831 34.26C40.0631 34.46 40.3831 34.58 40.7031 34.58C41.6631 34.58 42.1831 34.02 42.1831 32.98C42.1831 32.9 42.1031 32.54 42.0231 31.9C41.9431 31.34 41.9031 30.94 41.9031 30.7C41.9031 30.38 41.9431 29.78 42.0631 28.9C42.5831 24.9 43.0631 22.26 43.5031 21.02C43.6631 20.58 43.7831 20.14 43.7831 19.7ZM54.4391 5.26C54.4391 3.58 53.7591 2.7 52.4391 2.54C51.3991 2.9 50.8391 3.5 50.7591 4.38C50.7591 4.66 50.7991 4.9 50.7991 5.14C50.7991 6.54 51.5591 7.38 53.1191 7.66C53.9991 7.58 54.4391 6.78 54.4391 5.26ZM52.2791 20.34C52.2791 19.06 51.5191 18.34 50.0391 18.26C49.6391 18.5 49.4391 18.82 49.4391 19.18C49.4391 19.3 49.4791 19.62 49.5591 20.1C48.4391 25.62 47.9191 28.86 47.9191 29.9C47.9191 31.18 48.1191 32.18 48.5191 32.98C49.0391 33.98 49.5991 34.5 50.2391 34.5C50.7191 34.5 50.9991 34.22 50.9991 33.66C50.9991 33.02 50.7191 32.38 50.1991 31.82C50.1991 29.74 50.6391 26.82 51.5591 23.06C51.8391 22.02 52.0791 21.14 52.2791 20.34ZM93.0159 5.14C93.0159 4.46 92.6159 4.02 91.8159 3.86C91.0959 4.02 90.6959 4.34 90.6159 4.78C89.9359 8.38 89.3759 12.14 88.8959 16.1C85.5359 17.26 81.6559 17.98 77.2559 18.26C77.6159 14.78 78.0959 11.78 78.6559 9.26C79.0959 7.42 79.4159 6.18 79.6559 5.5C80.3359 3.54 80.6959 2.38 80.6959 2.02C80.6959 1.22 80.2559 0.779999 79.4159 0.779999C78.8159 0.779999 78.2559 1.58 77.6959 3.18C76.2559 7.22 75.2159 12.26 74.6559 18.26C73.0559 18.18 71.8559 18.1 71.1359 18.02C70.4559 18.02 70.1359 18.46 70.1359 19.34C70.1359 20.14 70.7359 20.58 72.0159 20.62C72.9759 20.7 73.7759 20.74 74.4559 20.74C74.2959 22.98 74.1759 25.14 74.0959 27.3C74.0559 27.9 73.9759 29.18 73.8959 31.18C73.8159 32.78 73.7759 33.86 73.7759 34.46C73.8159 35.22 74.1759 35.66 74.8959 35.82C75.6959 35.58 76.1759 35.1 76.2559 34.38C76.5759 28.34 76.8559 23.78 77.0159 20.7C80.6959 20.5 84.5359 19.86 88.6159 18.78C88.3759 20.94 88.2159 22.06 88.2159 22.18C87.8559 25.94 87.6959 29.34 87.6959 32.46C87.6959 33.7 87.7359 34.54 87.8959 34.98C88.0959 35.54 88.5359 35.86 89.2159 35.94C89.8559 35.78 90.2959 35.26 90.4959 34.34C90.4959 34.18 90.4559 33.7 90.4159 32.86C90.3759 31.98 90.3759 31.26 90.3759 30.66C90.3759 25.46 90.9359 19.06 92.0559 11.38C92.5359 8.3 92.8559 6.22 93.0159 5.14ZM113.119 19.7C113.119 18.98 112.759 18.58 112.079 18.58C111.759 18.58 111.479 18.82 111.199 19.3C109.439 22.3 107.719 24.82 105.959 26.9C103.559 29.78 101.559 31.18 99.9991 31.18C99.5991 31.18 99.3991 30.9 99.3991 30.34C99.3991 30.1 99.4791 29.42 99.6791 28.3C100.439 23.98 100.839 21.38 100.839 20.5C100.839 19.06 100.479 18.34 99.8391 18.34C99.5191 18.34 99.2391 18.5 98.9991 18.78C98.7591 19.1 98.6391 19.38 98.6391 19.7C98.6391 19.78 98.6391 19.94 98.6791 20.1C98.6791 20.34 98.6791 20.46 98.6791 20.54C98.6791 21.66 98.3991 23.58 97.8791 26.3C97.3191 28.86 97.0791 30.54 97.0791 31.3C97.0791 32.1 97.3591 32.74 97.9191 33.22C98.4391 33.7 99.1591 33.94 100.039 33.94C102.039 33.94 105.239 31.34 109.639 26.14C109.239 28.18 108.999 30.34 108.919 32.62C108.719 32.9 108.639 33.18 108.639 33.46C108.639 33.78 108.799 34.02 109.119 34.26C109.399 34.46 109.719 34.58 110.039 34.58C110.999 34.58 111.519 34.02 111.519 32.98C111.519 32.9 111.439 32.54 111.359 31.9C111.279 31.34 111.239 30.94 111.239 30.7C111.239 30.38 111.279 29.78 111.399 28.9C111.919 24.9 112.399 22.26 112.839 21.02C112.999 20.58 113.119 20.14 113.119 19.7ZM123.775 5.26C123.775 3.58 123.095 2.7 121.775 2.54C120.735 2.9 120.175 3.5 120.095 4.38C120.095 4.66 120.135 4.9 120.135 5.14C120.135 6.54 120.895 7.38 122.455 7.66C123.335 7.58 123.775 6.78 123.775 5.26ZM121.615 20.34C121.615 19.06 120.855 18.34 119.375 18.26C118.975 18.5 118.775 18.82 118.775 19.18C118.775 19.3 118.815 19.62 118.895 20.1C117.775 25.62 117.255 28.86 117.255 29.9C117.255 31.18 117.455 32.18 117.855 32.98C118.375 33.98 118.935 34.5 119.575 34.5C120.055 34.5 120.335 34.22 120.335 33.66C120.335 33.02 120.055 32.38 119.535 31.82C119.535 29.74 119.975 26.82 120.895 23.06C121.175 22.02 121.415 21.14 121.615 20.34Z" fill="white"/>
</svg>
